<svg xmlns="http://www.w3.org/2000/svg" width="448.882" height="101.963" viewBox="0 0 448.882 101.963">
    <g transform="translate(18361.592 9503)">
        <g transform="translate(-18219.986 -9492.442)">
            <path
                d="M38.4,152.665a24.364,24.364,0,0,0,19.9-9.629l10.58,10.9q-12.6,14.181-29.682,14.177T11.055,157.319Q0,146.532,0,130.075t11.265-27.459A37.954,37.954,0,0,1,38.83,91.61q18.2,0,30.473,13.863l-10.26,11.64q-7.838-9.736-19.473-9.734a22.694,22.694,0,0,0-15.925,6.081q-6.614,6.087-6.611,16.4t6.24,16.559A20.59,20.59,0,0,0,38.4,152.665Z"
                transform="translate(0 -87.166)" fill="#104c93" />
            <path d="M688.344,144.145H672.47V65.63h15.874Z" transform="translate(-598.513 -64.043)" fill="#104c93" />
            <path
                d="M885.942,67.125a9.462,9.462,0,1,1,6.616,2.7A8.99,8.99,0,0,1,885.942,67.125ZM900.494,131.3H884.62V74.376h15.874Z"
                transform="translate(-786.112 -51.2)" fill="#104c93" />
            <path
                d="M1134.784,276.873v31.744H1118.91V251.691h15.874v3.179c4.794-4.864,12.819-4.886,18.748-4,5.433.816,8.462,1.977,12.52,6.212s6.081,9.879,6.081,16.93v34.6h-15.87V276.449q0-13.115-9.629-13.121a11.55,11.55,0,0,0-8.308,3.443Q1134.778,270.207,1134.784,276.873Z"
                transform="translate(-995.855 -228.515)" fill="#104c93" />
            <path
                d="M1666.208,67.125a9.455,9.455,0,1,1,6.616,2.7A8.977,8.977,0,0,1,1666.208,67.125Zm14.553,64.177h-15.874V74.376h15.874Z"
                transform="translate(-1480.561 -51.2)" fill="#104c93" />
            <path
                d="M1906.847,135.894l-7.667,8.252V65.63h15.874v40.317L1932.73,87.11h20l-21.69,23.071,22.53,33.965h-18.827l-14.5-21.8-5.184,5.4Z"
                transform="translate(-1690.313 -64.043)" fill="#104c93" />
            <path d="M2429.8,144.145H2413.93V65.63H2429.8Z" transform="translate(-2148.452 -64.043)" fill="#104c93" />
            <path
                d="M2627.322,67.125a9.462,9.462,0,1,1,6.616,2.7A8.981,8.981,0,0,1,2627.322,67.125Zm14.553,64.177H2626V74.376h15.874Z"
                transform="translate(-2335.971 -51.2)" fill="#104c93" />
        </g>
        <g transform="translate(-18361.592 -9503)">
            <path d="M1627.738,1752.23a2.92,2.92,0,0,1-.478.478v-.478Z" transform="translate(-1561.748 -1686.365)"
                fill="#a1a3a6" />
            <path d="M1155.368,1280.3v.478h-.478A5.69,5.69,0,0,1,1155.368,1280.3Z"
                transform="translate(-1109.169 -1234.208)" fill="#a1a3a6" />
            <path d="M1154.89,1752.23h.478v.478A5.706,5.706,0,0,1,1154.89,1752.23Z"
                transform="translate(-1109.169 -1686.365)" fill="#a1a3a6" />
            <path d="M1627.738,1280.778h-.478v-.478A2.915,2.915,0,0,1,1627.738,1280.778Z"
                transform="translate(-1561.748 -1234.207)" fill="#a1a3a6" />
            <path
                d="M175.348,236.024a55.743,55.743,0,0,1-21.027,43.663c-1.073.86-2.179,1.676-3.307,2.436l-17.039-14.759a34.523,34.523,0,1,0-30.222-.592L87.776,282.023c-1.14-.793-2.257-1.62-3.33-2.492a55.863,55.863,0,1,1,90.9-43.507Z"
                transform="translate(-63.62 -180.16)" fill="#104c93" />
            <path
                d="M887.035,1057.891v-8.062l-6.982,4.03-7.184-12.423,6.993-4.04-6.993-4.039,7.184-12.423,6.982,4.03V1016.9h14.348v8.064l6.983-4.03,7.183,12.422-6.987,4.039,6.986,4.032-7.174,12.426-6.991-4.038v8.076Z"
                transform="translate(-838.965 -981.843)" fill="#0ebbbc" />
        </g>
    </g>
</svg>