<svg width="651" height="592" viewBox="0 0 651 592" fill="none" xmlns="http://www.w3.org/2000/svg">
<path d="M172.5 111.5C222.833 111.5 262 127.5 290 159.5C318 191.5 332 236.333 332 294C332 331.667 325.667 364.333 313 392C300.667 419.333 282.5 440.333 258.5 455C234.5 469.667 205.833 477 172.5 477C122.167 477 83 461 55 429C27.3333 397 13.5 352 13.5 294C13.5 256.333 19.6667 223.833 32 196.5C44.6667 169.167 62.8333 148.167 86.5 133.5C110.5 118.833 139.167 111.5 172.5 111.5ZM172.5 178C150.833 178 134.833 187 124.5 205C114.5 223 109.5 252.667 109.5 294C109.5 335.333 114.667 365.167 125 383.5C135.333 401.5 151.167 410.5 172.5 410.5C194.5 410.5 210.5 401.5 220.5 383.5C230.5 365.5 235.5 335.667 235.5 294C235.5 252.667 230.5 223 220.5 205C210.5 187 194.5 178 172.5 178Z" fill="#45B0FF"/>
<path d="M434 471.5C379 471.5 334.833 459 301.5 434C268.167 409.333 251.5 364.333 251.5 299C251.5 182.333 310 124 427 124H538V471.5H434ZM445.5 405.5L445.5 190H421.5C396.167 190 377.5 198 365.5 214C353.167 230 347 258.333 347 299C347 327 350 348.667 356 364C361.667 379.667 370 390.5 381 396.5C391.667 402.5 405.333 405.5 422 405.5H445.5Z" fill="#45B0FF"/>
<path d="M577.073 124.286C577.708 124.16 578.357 124.074 579.018 124.032L579.05 124.531C579.364 124.51 579.681 124.5 580 124.5H580.986V124H582.958V124.5H584.931V124H586.903V124.5H588.875V124H590.847V124.5H592.819V124H594.792V124.5H596.764V124H598.736V124.5H600.708V124H602.681V124.5H604.653V124H606.625V124.5H608.597V124H610.569V124.5H612.542V124H614.514V124.5H616.486V124H618.458V124.5H620.431V124H622.403V124.5H624.375V124H626.347V124.5H628.319V124H630.292V124.5H632.264V124H634.236V124.5H636.208V124H638.181V124.5H640.153V124H642.125V124.5H644.097V124H646.069V124.5H648.042V124H650.014V124.5H650.5V125H651V127H650.5V129H651V131H650.5V133H651V135H650.5V137H651V139H650.5V141H651V143H650.5V145H651V147H650.5V149H651V151H650.5V153H651V155H650.5V157H651V159H650.5V161H651V163H650.5V165H651V167H650.5V169H651V171H650.5V173H651V175H650.5V177H651V179H650.5V181H651V183H650.5V185H651V187H650.5V189H651V191H650.5V193H651V195H650.5V197H651V199H650.5V201H651V203H650.5V205H651V207H650.5V209H651V211H650.5V213H651V215H650.5V217H651V219H650.5V221H651V223H650.5V225H651V227H650.5V229H651V231H650.5V233H651V235H650.5V237H651V239H650.5V241H651V243H650.5V245H651V247H650.5V249H651V251H650.5V253H651V255H650.5V257H651V259H650.5V261H651V263H650.5V265H651V267H650.5V269H651V271H650.5V273H651V275H650.5V277H651V279H650.5V281H651V283H650.5V285H651V287H650.5V289H651V291H650.5V293H651V295H650.5V297H651V299H650.5V301H651V303H650.5V305H651V307H650.5V309H651V311H650.5V313H651V315H650.5V317H651V319H650.5V321H651V323H650.5V325H651V327H650.5V329H651V331H650.5V333H651V335H650.5V337H651V339H650.5V341H651V343H650.5V345H651V347H650.5V349H651V351H650.5V353H651V355H650.5V357H651V359H650.5V361H651V363H650.5V365H651V367H650.5V369H651V371H650.5V373H651V375H650.5V377H651V379H650.5V381H651V383H650.5V385H651V387H650.5V389H651V391H650.5V393H651V395H650.5V397H651V399H650.5V401H651V403H650.5V405H651V407H650.5V409H651V411H650.5V413H651V415H650.5V417H651V419H650.5V421H651V423H650.5V425H651V427H650.5V429H651V431H650.5V433H651V435H650.5V437H651V439H650.5V441H651V443H650.5V445H651V447H650.5V449H651V451H650.5V453H651V455H650.5V457H651V459H650.5V461H651V463H650.5V465H651V467H650.5V467.5H650.014V468H648.042V467.5H646.069V468H644.097V467.5H642.125V468H640.153V467.5H638.181V468H636.208V467.5H634.236V468H632.264V467.5H630.292V468H628.319V467.5H626.347V468H624.375V467.5H622.403V468H620.431V467.5H618.458V468H616.486V467.5H614.514V468H612.542V467.5H610.569V468H608.597V467.5H606.625V468H604.653V467.5H602.681V468H600.708V467.5H598.736V468H596.764V467.5H594.792V468H592.819V467.5H590.847V468H588.875V467.5H586.903V468H584.931V467.5H582.958V468H580.986V467.5H580C579.681 467.5 579.364 467.49 579.05 467.469L579.018 467.968C578.357 467.926 577.708 467.84 577.073 467.714L577.17 467.224C576.543 467.1 575.932 466.936 575.337 466.734L575.177 467.208C574.553 466.996 573.948 466.745 573.364 466.456L573.586 466.008C573.016 465.727 572.468 465.409 571.944 465.058L571.666 465.473C571.121 465.109 570.601 464.709 570.11 464.278L570.44 463.902C569.964 463.484 569.516 463.036 569.098 462.56L568.722 462.89C568.291 462.399 567.891 461.879 567.527 461.334L567.942 461.056C567.591 460.532 567.273 459.984 566.992 459.414L566.544 459.636C566.255 459.052 566.004 458.447 565.792 457.823L566.266 457.663C566.064 457.068 565.9 456.457 565.776 455.83L565.286 455.927C565.16 455.292 565.074 454.643 565.032 453.982L565.531 453.95C565.51 453.636 565.5 453.319 565.5 453V452.006H565V450.018H565.5V448.031H565V446.044H565.5V444.056H565V442.069H565.5V440.082H565V438.094H565.5V436.107H565V434.12H565.5V432.132H565V430.145H565.5V428.158H565V426.17H565.5V424.183H565V422.196H565.5V420.208H565V418.221H565.5V416.234H565V414.246H565.5V412.259H565V410.272H565.5V408.284H565V406.297H565.5V404.31H565V402.322H565.5V400.335H565V398.348H565.5V396.36H565V394.373H565.5V392.386H565V390.398H565.5V388.411H565V386.424H565.5V384.436H565V382.449H565.5V380.462H565V378.474H565.5V376.487H565V374.5H565.5V372.512H565V370.525H565.5V368.538H565V366.55H565.5V364.563H565V362.576H565.5V360.588H565V358.601H565.5V356.614H565V354.626H565.5V352.639H565V350.652H565.5V348.664H565V346.677H565.5V344.69H565V342.702H565.5V340.715H565V338.728H565.5V336.74H565V334.753H565.5V332.766H565V330.778H565.5V328.791H565V326.804H565.5V324.816H565V322.829H565.5V320.842H565V318.854H565.5V316.867H565V314.88H565.5V312.892H565V310.905H565.5V308.918H565V306.93H565.5V304.943H565V302.956H565.5V300.968H565V298.981H565.5V296.994H565V295.006H565.5V293.019H565V291.032H565.5V289.044H565V287.057H565.5V285.07H565V283.082H565.5V281.095H565V279.108H565.5V277.12H565V275.133H565.5V273.146H565V271.158H565.5V269.171H565V267.184H565.5V265.196H565V263.209H565.5V261.222H565V259.234H565.5V257.247H565V255.26H565.5V253.272H565V251.285H565.5V249.298H565V247.31H565.5V245.323H565V243.335H565.5V241.348H565V239.361H565.5V237.373H565V235.386H565.5V233.399H565V231.411H565.5V229.424H565V227.437H565.5V225.449H565V223.462H565.5V221.475H565V219.487H565.5V217.5H565V215.513H565.5V213.525H565V211.538H565.5V209.551H565V207.563H565.5V205.576H565V203.589H565.5V201.601H565V199.614H565.5V197.627H565V195.639H565.5V193.652H565V191.665H565.5V189.677H565V187.69H565.5V185.703H565V183.715H565.5V181.728H565V179.741H565.5V177.753H565V175.766H565.5V173.778H565V171.791H565.5V169.804H565V167.816H565.5V165.829H565V163.842H565.5V161.854H565V159.867H565.5V157.88H565V155.892H565.5V153.905H565V151.918H565.5V149.93H565V147.943H565.5V145.956H565V143.968H565.5V141.981H565V139.994H565.5V139C565.5 138.681 565.51 138.364 565.531 138.05L565.032 138.018C565.074 137.357 565.16 136.708 565.286 136.073L565.776 136.17C565.9 135.543 566.064 134.932 566.266 134.337L565.792 134.177C566.004 133.553 566.256 132.948 566.544 132.364L566.992 132.586C567.273 132.016 567.591 131.468 567.942 130.944L567.527 130.666C567.891 130.121 568.291 129.601 568.722 129.11L569.098 129.44C569.516 128.964 569.964 128.516 570.44 128.098L570.11 127.722C570.601 127.291 571.121 126.891 571.666 126.527L571.944 126.942C572.468 126.591 573.016 126.273 573.586 125.992L573.364 125.544C573.948 125.256 574.553 125.004 575.177 124.792L575.337 125.266C575.932 125.064 576.543 124.9 577.17 124.776L577.073 124.286Z" fill="#394C98" stroke="black" stroke-dasharray="2 2"/>
<ellipse cx="609.5" cy="513" rx="32.5" ry="35" fill="#D9D9D9"/>
</svg>
