<svg data-name="Layer 1" xmlns="http://www.w3.org/2000/svg" width="923.37225" height="627.61963" viewBox="0 0 923.37225 627.61963" xmlns:xlink="http://www.w3.org/1999/xlink"><path d="M649.37437,427.69019H416.39317a14.03933,14.03933,0,0,1-14.02344-14.02344V311.5437a14.03933,14.03933,0,0,1,14.02344-14.02344h232.9812a14.03954,14.03954,0,0,1,14.02368,14.02344v102.123A14.03954,14.03954,0,0,1,649.37437,427.69019Z" transform="translate(-138.31388 -136.19019)" fill="#e6e6e6"/><circle cx="17" cy="24.00002" r="17"  fill="#45b0ff"/><path d="M160.31382,172.19019a18,18,0,1,1,18-18A18.02039,18.02039,0,0,1,160.31382,172.19019Zm0-34a16,16,0,1,0,16,16A16.01825,16.01825,0,0,0,160.31382,138.19019Z" transform="translate(-138.31388 -136.19019)" fill="#3f3d56"/><circle cx="224" cy="238.00002" r="17" fill="#e6e6e6"/><path d="M367.31382,386.19019a18,18,0,1,1,18-18A18.02031,18.02031,0,0,1,367.31382,386.19019Zm0-34a16,16,0,1,0,16,16A16.01817,16.01817,0,0,0,367.31382,352.19019Z" transform="translate(-138.31388 -136.19019)" fill="#3f3d56"/><circle cx="356" cy="109.00002" r="17" fill="#45b0ff"/><path d="M499.31382,257.19019a18,18,0,1,1,18-18A18.02031,18.02031,0,0,1,499.31382,257.19019Zm0-34a16,16,0,1,0,16,16A16.01817,16.01817,0,0,0,499.31382,223.19019Z" transform="translate(-138.31388 -136.19019)" fill="#3f3d56"/><path d="M423.53794,329.33521H190.557a14.03954,14.03954,0,0,1-14.02368-14.02344V213.18921A14.03965,14.03965,0,0,1,190.557,199.16528h232.981a14.03964,14.03964,0,0,1,14.02368,14.02393V315.31177A14.03954,14.03954,0,0,1,423.53794,329.33521Z" transform="translate(-138.31388 -136.19019)" fill="#45b0ff"/><path d="M438.73448,318.86011H205.7534a14.53993,14.53993,0,0,1-14.52356-14.52344V202.21362a14.53992,14.53992,0,0,1,14.52356-14.52343H438.73448a14.54,14.54,0,0,1,14.52368,14.52343V304.33667A14.54,14.54,0,0,1,438.73448,318.86011ZM205.7534,189.69019a12.53779,12.53779,0,0,0-12.52356,12.52343V304.33667a12.53779,12.53779,0,0,0,12.52356,12.52344H438.73448a12.5379,12.5379,0,0,0,12.52368-12.52344V202.21362a12.5379,12.5379,0,0,0-12.52368-12.52343Z" transform="translate(-138.31388 -136.19019)" fill="#3f3d56"/><path d="M664.57066,417.21509H431.5897A14.54045,14.54045,0,0,1,417.066,402.69116V300.5686a14.54,14.54,0,0,1,14.52368-14.52343h232.981a14.54,14.54,0,0,1,14.52368,14.52343V402.69116A14.54045,14.54045,0,0,1,664.57066,417.21509ZM431.5897,288.04517A12.53789,12.53789,0,0,0,419.066,300.5686V402.69116a12.538,12.538,0,0,0,12.52368,12.52393h232.981a12.538,12.538,0,0,0,12.52368-12.52393V300.5686a12.5379,12.5379,0,0,0-12.52368-12.52343Z" transform="translate(-138.31388 -136.19019)" fill="#3f3d56"/></svg>