<?xml version="1.0" standalone="no"?>
<!DOCTYPE svg PUBLIC "-//W3C//DTD SVG 20010904//EN"
 "http://www.w3.org/TR/2001/REC-SVG-20010904/DTD/svg10.dtd">
<svg version="1.0" xmlns="http://www.w3.org/2000/svg"
 width="651.000000pt" height="651.000000pt" viewBox="0 0 651.000000 651.000000"
 preserveAspectRatio="xMidYMid meet">
<metadata>
Created by potrace 1.14, written by Peter Selinger 2001-2017
</metadata>
<g transform="translate(0.000000,651.000000) scale(0.100000,-0.100000)"
fill="#000000" stroke="none">
<path d="M1637 5104 c-1 -1 -40 -4 -87 -8 -47 -3 -96 -8 -110 -11 -13 -2 -42
-7 -65 -10 -95 -14 -277 -70 -357 -111 -27 -13 -48 -21 -48 -17 0 5 -4 4 -8
-2 -4 -5 -27 -21 -52 -34 -217 -116 -442 -358 -568 -612 -45 -92 -115 -280
-126 -342 -3 -12 -5 -22 -6 -22 -3 0 -35 -163 -45 -230 -3 -22 -7 -47 -10 -55
-22 -80 -22 -565 -1 -735 11 -83 28 -184 36 -215 5 -19 12 -50 15 -69 3 -19
10 -42 16 -52 5 -11 7 -19 5 -19 -11 0 68 -211 114 -306 49 -101 123 -219 176
-284 33 -39 154 -162 199 -201 123 -105 391 -237 535 -263 14 -2 32 -7 40 -10
8 -3 31 -7 50 -10 19 -3 46 -8 60 -11 129 -26 499 -27 650 0 214 37 396 107
570 218 91 58 168 124 258 219 38 41 46 45 59 33 37 -38 170 -132 243 -174 76
-43 255 -124 300 -137 8 -2 62 -17 120 -34 58 -17 121 -33 140 -36 19 -3 51
-9 70 -14 19 -4 62 -11 95 -15 33 -4 71 -9 85 -11 85 -12 251 -16 788 -18
l602 -1 0 1738 0 1738 -692 -4 c-381 -2 -711 -7 -733 -10 -22 -4 -60 -9 -85
-12 -181 -24 -518 -123 -542 -159 -4 -6 -8 -7 -8 -3 0 12 -158 -77 -172 -98
-4 -5 -8 -7 -8 -3 0 4 -8 1 -17 -6 -102 -83 -149 -121 -154 -128 -3 -5 -30 20
-60 54 -67 77 -104 113 -159 158 -23 19 -51 43 -61 53 -11 9 -21 17 -24 17 -2
0 -35 19 -72 43 -156 100 -372 176 -573 202 -104 14 -374 27 -383 19z m253
-683 c120 -34 257 -140 305 -236 11 -22 23 -42 26 -45 8 -6 57 -141 64 -178 3
-15 7 -31 9 -37 5 -16 20 -95 31 -160 33 -193 38 -694 9 -900 -3 -22 -7 -53
-8 -70 -2 -16 -9 -57 -16 -90 -7 -33 -13 -64 -15 -70 -43 -212 -161 -391 -301
-459 -97 -48 -151 -59 -284 -58 -177 1 -321 72 -419 206 -30 41 -79 129 -86
156 -1 3 -4 12 -8 20 -30 75 -55 186 -81 361 -24 160 -25 644 -2 819 9 71 25
173 30 195 1 6 6 26 10 45 4 19 19 69 33 110 71 213 198 342 381 390 78 21
251 21 322 1z m2565 -1174 c0 -950 -1 -1073 -15 -1078 -21 -8 -302 -4 -370 5
-48 7 -132 26 -180 42 -8 3 -17 5 -19 4 -2 -1 -7 2 -10 7 -3 4 -28 19 -55 33
-27 13 -69 45 -93 70 -48 48 -110 138 -105 152 1 4 -2 8 -7 8 -5 0 -12 10 -16
23 -9 27 -8 26 -39 110 -13 37 -22 67 -20 67 3 0 0 8 -5 18 -5 9 -12 42 -16
72 -4 30 -9 58 -11 61 -17 29 -25 552 -10 699 10 102 33 222 57 300 25 79 69
180 86 198 7 7 13 16 13 20 0 13 116 132 128 132 7 0 12 4 12 9 0 20 172 91
260 106 19 3 36 7 37 9 2 2 88 4 191 4 l187 2 0 -1073z"/>
<path d="M5800 4979 c0 -3 -14 -4 -30 -3 -19 1 -34 -4 -40 -14 -5 -10 -10 -13
-10 -9 0 4 -8 0 -18 -10 -20 -20 -55 -73 -48 -73 3 0 1 -13 -4 -29 -5 -19 -4
-33 3 -40 7 -7 7 -11 1 -11 -7 0 -8 -16 -4 -45 4 -25 4 -48 0 -50 -4 -3 -6
-17 -4 -32 4 -35 6 -115 4 -128 -5 -28 0 -367 5 -375 3 -6 2 -10 -3 -10 -5 0
-6 -20 -2 -45 4 -25 5 -47 2 -50 -8 -7 -4 -393 3 -405 3 -5 3 -10 -2 -10 -9 0
-8 -103 1 -119 4 -6 4 -11 -1 -11 -9 0 -8 -614 2 -630 3 -5 3 -10 -2 -10 -4 0
-8 -140 -8 -310 0 -171 4 -310 8 -310 5 0 5 -5 2 -10 -8 -13 -8 -527 0 -540 3
-5 1 -10 -5 -10 -7 0 -7 -7 1 -22 7 -13 12 -24 11 -25 -11 -16 43 -78 79 -92
33 -12 121 -17 137 -7 7 4 12 3 12 -1 0 -9 46 -10 55 -1 3 3 24 2 45 -2 24 -4
43 -3 46 2 4 6 10 5 15 -3 8 -12 11 -11 19 1 5 8 10 11 10 5 0 -6 63 -9 172
-8 95 1 192 2 215 3 l41 0 0 1719 0 1720 -114 3 c-63 2 -114 -1 -114 -5 0 -5
-5 -5 -11 -2 -17 11 -149 11 -149 0 0 -7 -3 -7 -8 0 -7 10 -312 15 -312 4z"/>
<path d="M5994 1421 c-69 -27 -154 -94 -154 -120 0 -6 -4 -11 -9 -11 -19 0
-55 -114 -57 -185 -4 -111 24 -188 98 -265 43 -45 59 -56 130 -84 33 -13 133
-15 178 -4 43 11 100 47 138 88 72 75 104 164 98 275 -7 129 -84 246 -193 296
-61 29 -170 33 -229 10z"/>
</g>
</svg>
